<?xml version="1.0" encoding="iso-8859-1"?>
<!-- Generator: Adobe Illustrator 22.1.0, SVG Export Plug-In . SVG Version: 6.00 Build 0)  -->
<svg version="1.1" id="Layer_1" xmlns="http://www.w3.org/2000/svg" xmlns:xlink="http://www.w3.org/1999/xlink" x="0px" y="0px"
	 width="190.149px" height="106.228px" viewBox="0 0 190.149 106.228" enable-background="new 0 0 190.149 106.228"
	 xml:space="preserve" role="img">
	 <title>In</title>
<g>
	<path fill="#FF00FF" d="M90.679,61.943c0.903-8.26,1.762-16.525,2.733-24.777c0.346-2.938,0.518-5.852,0.508-8.819
		c-0.032-9.558,4.748-16.526,12.383-21.755c5.268-3.608,11.197-5.475,17.531-5.874c12.261-0.772,23.664,2.197,34.099,8.588
		c6.843,4.191,12.142,10.1,16.896,16.493c5.27,7.087,9.896,14.54,12.724,22.98c2.08,6.208,3.284,12.516,2.177,19.096
		c-0.836,4.971-2.666,9.523-5.57,13.642c-3.943,5.594-9.365,7.849-16.051,6.753c-3.774-0.619-7.471-1.701-11.218-2.503
		c-2.726-0.584-5.457-1.244-8.221-1.519c-3.193-0.318-6.22,0.632-8.847,2.451c-2.094,1.45-3.994,3.181-5.984,4.783
		c-2.176,1.751-4.235,3.684-6.561,5.207c-4.67,3.058-9.798,3.645-15.182,2.198c-7.11-1.911-12.358-6.172-15.915-12.564
		c-2.927-5.26-4.344-10.975-4.901-16.919c-0.231-2.465-0.272-4.947-0.4-7.421C90.812,61.968,90.746,61.955,90.679,61.943z"/>
	<path fill="#FF00FF" d="M0,71.222c0.207-12.903,2.598-24.048,6.022-35.009c0.31-0.992,0.567-2.009,0.979-2.958
		c1.968-4.541,2.685-9.378,3.143-14.223c0.655-6.925,4.358-11.922,9.653-15.891c4.386-3.287,9.484-3.734,14.667-2.532
		C48.192,3.794,56.072,12.52,58.44,24.49c0.92,4.648,0.441,9.258-0.45,13.821c-1.07,5.478-0.638,10.836,0.909,16.124
		c1.167,3.988,2.52,7.92,3.786,11.879c1.316,4.117,2.519,8.254,2.829,12.603c0.642,8.996-2.679,16.079-10.144,21.168
		c-12.904,8.796-31.9,8.066-44.068-1.671C4.971,93.348,1.538,86.688,0.595,78.713C0.248,75.78,0.123,72.82,0,71.222z"/>
</g>
</svg>
