<?xml version="1.0" encoding="iso-8859-1"?>
<!-- Generator: Adobe Illustrator 22.1.0, SVG Export Plug-In . SVG Version: 6.00 Build 0)  -->
<svg version="1.1" id="Layer_1" xmlns="http://www.w3.org/2000/svg" xmlns:xlink="http://www.w3.org/1999/xlink" x="0px" y="0px"
	 width="653.439px" height="185.046px" viewBox="0 0 653.439 185.046" enable-background="new 0 0 653.439 185.046"
	 xml:space="preserve" role="img">
	 <title>Random</title>
<g>
	<path fill="#FF00FF" d="M237.079,108.928c-0.048-4.969,0.218-10.232,1.455-15.401c0.297-1.241,0.64-2.479,1.067-3.68
		c3.011-8.478,8.981-13.547,17.75-15.447c5.457-1.183,10.811-0.477,16.169,0.614c1.564,0.319,3.141,0.585,4.72,0.82
		c1.876,0.279,3.449-0.324,4.76-1.706c0.99-1.043,2.025-2.046,3.076-3.03c5.454-5.107,11.879-6.641,19.091-5.054
		c6.723,1.479,12.459,4.879,17.623,9.322c6.709,5.771,11.73,12.856,15.82,20.625c7.317,13.898,11.178,28.687,11.157,44.432
		c-0.005,4.097-0.566,8.134-1.79,12.056c-2.849,9.13-9.179,14.103-18.52,15.507c-5.729,0.861-11.297-0.163-16.894-1.196
		c-3.132-0.578-6.313-0.995-9.491-1.2c-4.092-0.264-7.474,1.354-10.1,4.531c-1.834,2.218-3.645,4.459-5.561,6.606
		c-3.434,3.848-7.534,6.648-12.673,7.739c-4.148,0.881-8.256,0.768-12.334-0.392c-5.368-1.528-9.313-4.784-11.887-9.735
		c-2.453-4.72-3.93-9.778-5.182-14.909c-1.879-7.702-2.939-15.542-3.836-23.408c-0.081-0.709-0.14-1.454-0.405-2.103
		C237.863,126,236.889,117.72,237.079,108.928z"/>
	<path fill="#FF00FF" d="M48.943,12.412c12.297-0.507,23.158,3.332,32.509,11.253c7.873,6.67,12.923,15.147,15.185,25.227
		c1.183,5.274,0.639,10.503-0.861,15.637c-0.739,2.528-1.607,5.025-2.549,7.486c-0.806,2.107-0.667,4.051,0.473,5.968
		c0.98,1.648,1.915,3.324,2.907,4.965c2.399,3.967,4.888,7.882,7.21,11.893c2.208,3.814,4.073,7.787,4.788,12.208
		c1.275,7.88-1.346,14.29-7.736,18.872c-5.941,4.261-12.619,6.137-19.962,4.176c-3.318-0.886-6.109-2.741-8.627-5.019
		c-1.125-1.019-2.165-2.132-3.263-3.181c-0.983-0.938-1.946-1.906-3.001-2.758c-3.684-2.977-6.583-3.206-10.488-0.549
		c-2.304,1.567-4.371,3.482-6.547,5.238c-2.239,1.806-4.405,3.713-6.733,5.396c-9.788,7.076-23.552,4.946-30.818,0.006
		c-3.678-2.501-6.217-5.938-8.084-9.917c-2.21-4.712-3.13-9.714-3.309-14.876c-0.314-9.046,1.331-17.839,3.659-26.507
		c1.532-5.706,3.436-11.311,5.13-16.975c0.525-1.753,0.997-3.531,1.341-5.327c0.878-4.579,2.396-8.942,4.175-13.235
		c0.917-2.211,1.792-4.447,2.52-6.725c1.965-6.149,5.367-11.376,9.838-15.984c4.399-4.534,9.819-6.761,16.009-7.248
		C44.776,12.275,46.865,12.412,48.943,12.412z"/>
	<path fill="#FF00FF" d="M653.424,94.058c0.053,7.184-0.909,14.855-3.521,22.244c-0.739,2.091-1.677,4.177-2.89,6.023
		c-4.611,7.015-14.659,8.607-20.829,1.752c-1.386-1.539-2.687-3.182-3.821-4.912c-1.359-2.073-3.092-2.715-5.513-2.41
		c-4.92,0.62-9.857,0.923-14.83,0.418c-5.244-0.532-9.457-2.746-12.518-7.064c-1.294-1.826-2.583-3.656-3.828-5.515
		c-1.569-2.342-3.711-3.452-6.529-3.123c-3.729,0.435-7.509,0.641-11.168,1.414c-11.675,2.468-18.606-7.731-18.848-15.727
		c-0.086-2.834,0.206-5.608,1.058-8.284c2.719-8.538,5.789-16.941,10.142-24.813c2.331-4.215,4.956-8.218,8.544-11.5
		c4.275-3.912,9.115-6.426,15.102-6.231c3.968,0.129,7.51,1.406,10.71,3.701c3.019,2.166,5.492,4.868,7.719,7.823
		c1.153,1.53,2.357,3.027,3.621,4.466c2.165,2.466,4.952,3.42,8.183,3.097c3.022-0.301,6.04-0.64,9.059-0.974
		c3.428-0.38,6.844-0.495,10.273,0.08c5.081,0.852,9.029,3.47,12.124,7.507c2.475,3.23,3.97,6.924,5.05,10.793
		C652.592,79.56,653.577,86.424,653.424,94.058z"/>
	<path fill="#FF00FF" d="M216.581,106.312c-0.147,6.31-1.256,13.88-3.923,21.16c-0.711,1.939-1.632,3.829-2.672,5.615
		c-3.264,5.603-8.33,8.216-14.694,8.423c-1.992,0.065-4.002-0.039-5.986-0.237c-5.155-0.515-10.197-0.276-15.15,1.46
		c-2.404,0.842-4.904,1.52-7.416,1.926c-6.709,1.084-13.333,0.429-19.466-2.491c-7.397-3.522-11.329-9.816-12.838-17.749
		c-0.885-4.653-0.274-9.256,0.464-13.835c1.709-10.61,4.328-20.966,8.69-30.843c4.162-9.424,10.088-17.403,18.626-23.305
		c5.066-3.501,10.688-5.388,16.847-5.543c6.841-0.172,12.971,1.938,18.118,6.41c2.452,2.131,4.72,4.587,6.621,7.221
		C211.391,75.046,216.639,91.945,216.581,106.312z"/>
	<path fill="#FF00FF" d="M364.561,0.028c15.121-0.219,28.381,4.896,39.856,14.537c7.955,6.684,13.139,15.162,14.918,25.554
		c1.117,6.525,0.313,12.918-1.287,19.238c-3.428,13.546-10.726,24.352-22.922,31.491c-7.637,4.471-15.909,6.071-24.702,4.712
		c-4.882-0.754-8.825-3.137-12.013-6.864c-2.684-3.138-4.789-6.653-6.049-10.551c-2.135-6.608-4.133-13.267-5.946-19.971
		c-2.524-9.331-4.821-18.722-7.224-28.086c-0.436-1.699-0.994-3.371-1.352-5.085c-0.438-2.104-0.956-4.231-1.029-6.363
		c-0.155-4.535,1.468-8.414,4.813-11.581c5.034-4.765,11.156-6.681,17.9-7.02C361.2-0.043,362.882,0.028,364.561,0.028z"/>
	<path fill="#FF00FF" d="M523.74,94.653c0.028,18.489-12.88,34.685-31.848,39.189c-7.257,1.723-14.573,2.052-21.873,0.341
		c-10.56-2.476-18.835-8.383-24.489-17.567c-8.163-13.258-9.542-27.257-3.373-41.73c2.328-5.462,6.096-9.914,10.466-13.879
		c0.704-0.639,1.418-1.313,1.944-2.094c2.225-3.303,5.264-5.581,8.905-7.025c5.229-2.074,10.675-3.437,16.28-3.831
		c7.998-0.563,15.462,1.323,21.951,6.118c9.481,7.006,16.726,15.765,20.262,27.229C523.223,85.482,523.761,89.676,523.74,94.653z"/>
</g>
</svg>
