<?xml version="1.0" encoding="iso-8859-1"?>
<!-- Generator: Adobe Illustrator 22.1.0, SVG Export Plug-In . SVG Version: 6.00 Build 0)  -->
<svg version="1.1" id="Layer_1" xmlns="http://www.w3.org/2000/svg" xmlns:xlink="http://www.w3.org/1999/xlink" x="0px" y="0px"
	 width="569.629px" height="195.881px" viewBox="0 0 569.629 195.881" enable-background="new 0 0 569.629 195.881"
	 xml:space="preserve" role="img">
	 <title>Matter</title>
<g>
	<path fill="#FF00FF" d="M122.188,121.204c-0.176,9.276-1.696,18.317-5.143,26.941c-1.235,3.09-2.735,6.193-4.711,8.846
		c-5.454,7.326-12.915,10.422-22.021,9.294c-2.911-0.36-5.467-1.729-7.935-3.238c-2.003-1.225-4.105-2.246-6.492-2.242
		c-1.821,0.003-3.721-0.001-5.449,0.487c-8.417,2.373-15.959,0.186-23.104-4.182c-2.909-1.778-5.167-4.275-7.027-7.114
		c-1.27-1.938-2.503-3.904-3.682-5.899c-1.116-1.887-2.692-3.078-4.781-3.737c-4.122-1.302-8.28-2.367-12.584-2.93
		c-5.583-0.731-10.68-2.601-14.716-6.81c-3.906-4.073-5.159-8.823-4.272-14.33c0.979-6.078,1.988-12.136,3.923-18.006
		c2.799-8.49,6.67-16.424,12.005-23.621c4.196-5.662,9.354-10.044,16.181-12.218c4.94-1.573,9.974-2.197,15.14-1.487
		c7.092,0.975,12.594,4.549,16.429,10.497c2.114,3.279,3.783,6.845,5.624,10.297c0.676,1.268,1.209,2.615,1.916,3.864
		c1.135,2.005,2.338,2.639,4.57,2.146c2.175-0.48,4.303-1.194,6.426-1.881c2.203-0.713,4.355-1.585,6.565-2.27
		c10.441-3.236,20.209,1.24,25.802,9.018c2.605,3.623,4.28,7.664,5.378,11.955C121.627,110.034,122.233,115.584,122.188,121.204z"/>
	<path fill="#FF00FF" d="M240.717,130.964c-0.158,4.963-0.972,9.742-2.748,14.348c-1.132,2.937-2.746,5.583-4.827,7.953
		c-5.391,6.139-12.15,8.561-20.208,7.521c-2.219-0.286-4.455-0.471-6.66-0.838c-3.643-0.607-7.162,0.027-10.678,0.846
		c-3.966,0.923-7.894,2.093-11.907,2.718c-12.197,1.9-22.449-1.775-30.317-11.4c-6.933-8.481-10.487-18.266-10.25-29.244
		c0.175-8.098,2.339-15.787,5.81-23.09c4.698-9.884,11.537-17.787,21.364-22.911c0.664-0.346,1.275-0.96,1.69-1.594
		c4.358-6.651,10.363-10.711,18.275-11.943c3.682-0.573,7.162,0.003,10.552,1.396c3.884,1.597,7.392,3.85,10.505,6.627
		c6.887,6.144,13.063,12.956,18.164,20.662c5.481,8.281,8.354,17.571,9.895,27.293C239.987,123.167,240.279,127.077,240.717,130.964
		z"/>
	<path fill="#FF00FF" d="M285.399,138.007c-16.596-0.164-30.213-9.766-36.382-25.814c-2.931-7.625-4.066-15.59-4.356-23.711
		c-0.403-11.286,0.022-22.545,1.042-33.787c0.231-2.547,0.414-5.101,0.758-7.633c0.247-1.813,0.63-3.621,1.118-5.386
		c1.953-7.052,5.808-11.556,15.547-12.641c7.677-0.855,14.162,1.655,19.511,7.176c0.722,0.745,1.519,1.474,2.035,2.355
		c2.161,3.694,5.434,5.553,9.498,6.665c4.87,1.332,9.056,3.95,12.117,8.143c3.429,4.695,4.654,9.929,3.945,15.644
		c-0.246,1.981-0.618,3.948-0.974,5.914c-0.744,4.102-0.534,8.083,1.065,12.005c1.75,4.29,3.474,8.606,4.244,13.215
		c0.969,5.797,1.59,11.64-0.291,17.34c-3.742,11.338-11.435,18.213-23.395,19.993C289.069,137.755,287.228,137.838,285.399,138.007z
		"/>
	<path fill="#FF00FF" d="M324.989,158.252c0.056-8.444,1.375-16.741,3.427-24.891c2.188-8.689,5.135-17.144,8.877-25.312
		c3.073-6.707,7.544-12.225,13.613-16.415c4.544-3.138,9.558-3.919,14.876-2.598c1.3,0.323,2.631,0.834,3.736,1.574
		c7.721,5.168,12.545,12.042,12.198,21.724c-0.102,2.833,0.906,4.953,3.12,6.607c1.858,1.388,3.706,2.79,5.547,4.201
		c4.631,3.549,6.524,8.212,6.18,14.046c-0.285,4.817-0.741,9.558-2.314,14.145c-0.79,2.304-0.441,4.559,0.311,6.816
		c0.808,2.423,1.76,4.834,2.22,7.329c1.026,5.555-0.475,10.624-3.641,15.22c-2.682,3.894-6.162,6.897-10.359,9.084
		c-1.415,0.737-2.804,1.533-4.15,2.39c-3.116,1.984-6.614,2.832-10.186,3.319c-6.952,0.947-13.729,0.194-20.201-2.628
		c-2.56-1.117-5.213-2.127-7.565-3.599c-10.267-6.42-14.846-16.131-15.681-27.895C324.925,160.336,324.989,159.292,324.989,158.252z
		"/>
	<path fill="#FF00FF" d="M404.639,94.678c0.376-13.736,4.436-24.46,11.752-34.016c0.774-1.011,1.499-2.07,2.147-3.166
		c1.584-2.677,3.644-4.909,6.384-6.356c10.107-5.338,20.714-7.511,31.96-4.395c8.278,2.294,14.335,7.523,18.58,14.908
		c1.629,2.834,2.361,5.963,2.386,9.195c0.051,6.803-1.266,13.256-5.93,18.522c-2.296,2.593-2.656,5.256-1.479,8.396
		c1.318,3.515,2.541,7.062,2.872,10.858c0.334,3.842-0.218,7.534-1.927,10.96c-4.8,9.627-12.66,14.895-23.374,15.452
		c-10.332,0.538-19.775-2.407-28.128-8.524c-7.511-5.501-11.795-13.147-13.786-22.09C405.266,100.696,404.953,96.855,404.639,94.678
		z"/>
	<path fill="#FF00FF" d="M490.822,40.615c0.377-4.63,0.643-8.934,1.108-13.218c0.269-2.481,1.049-4.847,2.807-6.758
		c0.161-0.175,0.306-0.374,0.419-0.583c5.464-10.151,14.978-14.976,25.142-18.742c2.772-1.027,5.961-1.156,8.974-1.266
		c8.325-0.304,16.438,0.79,24.018,4.537c4.732,2.339,8.811,5.509,11.984,9.75c4.083,5.456,5.296,11.497,3.631,18.143
		c-1.791,7.15-5.638,13.028-11.071,17.868c-2.739,2.44-5.75,4.575-8.646,6.839c-1.007,0.788-2.052,1.527-3.052,2.324
		c-2.607,2.078-4.199,4.771-4.831,8.044c-0.455,2.353-0.841,4.725-1.425,7.046c-1.155,4.592-3.298,8.653-6.878,11.85
		c-4.829,4.313-10.395,5.755-16.7,4.206c-6.775-1.665-11.922-5.685-15.875-11.276c-4.089-5.783-6.463-12.343-7.513-19.274
		C491.923,53.559,491.479,46.931,490.822,40.615z"/>
</g>
</svg>
