<?xml version="1.0" encoding="iso-8859-1"?>
<!-- Generator: Adobe Illustrator 22.1.0, SVG Export Plug-In . SVG Version: 6.00 Build 0)  -->
<svg version="1.1" id="Layer_1" xmlns="http://www.w3.org/2000/svg" xmlns:xlink="http://www.w3.org/1999/xlink" x="0px" y="0px"
	 width="442.146px" height="141.666px" viewBox="0 0 442.146 141.666" enable-background="new 0 0 442.146 141.666"
	 xml:space="preserve" role="img">
	 <title>Dark</title>
<g>
	<path fill="#FF00FF" d="M141.03,141.666c-1.078-0.223-2.156-0.448-3.235-0.669c-6.682-1.373-12.795-4.021-18.223-8.178
		c-7.98-6.112-12.509-14.356-13.849-24.14c-2.528-18.452,1.985-35.067,14.106-49.391c3.143-3.714,7.04-6.488,11.657-8.193
		c0.71-0.262,1.351-0.785,1.94-1.286c2.371-2.015,4.624-4.179,7.077-6.086c6.257-4.864,13.371-5.423,20.749-3.534
		c16.644,4.262,30.155,13.275,40.393,27.122c5.528,7.477,9.833,15.522,11.643,24.75c1.33,6.783,1.201,13.505-0.653,20.188
		c-0.866,3.122-2.287,5.959-4.106,8.619c-3.583,5.24-8.556,7.282-14.753,6.232c-2.831-0.479-5.614-1.245-8.414-1.902
		c-1.244-0.292-2.488-0.599-3.711-0.969c-3.012-0.911-5.695-0.219-8.121,1.647c-2.409,1.853-4.774,3.762-7.165,5.639
		c-1.635,1.284-3.244,2.606-4.929,3.822c-4.487,3.24-9.424,5.381-14.981,5.955c-0.378,0.039-0.738,0.246-1.106,0.374
		C143.91,141.666,142.47,141.666,141.03,141.666z"/>
	<path fill="#FF00FF" d="M397.045,102.219c-1.437,0.072-2.882,0.067-4.309,0.231c-4.266,0.488-7.762,2.399-10.306,5.897
		c-2.116,2.91-4.058,5.954-6.287,8.773c-2.123,2.686-4.361,5.322-6.835,7.678c-2.59,2.466-5.838,3.893-9.426,4.395
		c-5.379,0.753-9.9-1.128-13.884-4.593c-2.38-2.07-4.241-4.567-5.826-7.273c-6.112-10.433-10.716-21.482-12.83-33.415
		c-1.826-10.308-3.295-20.68-4.828-31.038c-0.983-6.643-1.897-13.3-2.633-19.974c-0.335-3.036-0.806-5.975-1.883-8.847
		c-0.762-2.031-0.964-4.17-0.482-6.37c1.226-5.6,5.287-8.929,10.991-8.597c7.372,0.429,14.254,2.749,20.841,5.961
		c2.512,1.225,4.889,2.723,7.348,4.059c1.052,0.571,2.143,1.075,3.24,1.555c3.207,1.404,6.383,1.288,9.487-0.317
		c2.485-1.285,4.892-2.736,7.434-3.894c2.533-1.155,5.138-2.216,7.805-3.001c5.4-1.588,10.676-0.879,15.563,1.806
		c9.596,5.272,15.793,13.081,17.341,24.164c0.343,2.454,0.632,4.918,0.849,7.386c0.305,3.475,1.527,6.515,3.996,9.015
		c3.765,3.812,7.54,7.615,11.296,11.436c2.305,2.345,4.475,4.799,5.988,7.758c3.697,7.229,3.201,14.246-1.393,20.853
		c-3.483,5.009-8.578,7.482-14.533,8.397c-4.916,0.756-9.723-0.148-14.558-0.742c-4.044-0.497-8.091-0.964-12.137-1.444
		C397.063,102.125,397.054,102.172,397.045,102.219z"/>
	<path fill="#FF00FF" d="M27.536,45.295c-0.679-3.849-1.497-7.44-1.915-11.077c-0.837-7.266,0.042-14.389,2.76-21.187
		C32.574,2.54,42.177-2.104,53.104,0.898C58.555,2.395,63.216,5.26,67.176,9.24c8.278,8.32,13.488,18.343,16.26,29.689
		c3.028,12.394,3.574,24.966,2.649,37.635c-0.448,6.14-1.151,12.245-2.515,18.268c-4.336,19.142-16.552,30.431-35.171,35.285
		c-9.431,2.459-18.68,1.959-27.631-2.168c-10.824-4.99-17.162-13.541-19.713-25.001c-3.959-17.783,3.268-41.864,21.036-54.231
		C23.853,47.49,25.727,46.426,27.536,45.295z"/>
	<path fill="#FF00FF" d="M246.756,28.576c7.452,0.566,14.826,1.273,22.096,3.075c4.488,1.112,9.131,1.581,13.666,2.526
		c3.115,0.649,6.311,1.272,9.215,2.508c10.333,4.396,15.694,15.461,12.784,26.286c-2.798,10.412-8.758,18.568-18.081,24.134
		c-1.921,1.147-3.904,2.194-5.883,3.238c-5.269,2.78-8.861,7.013-10.876,12.583c-0.87,2.404-1.587,4.862-2.382,7.293
		c-1.221,3.734-2.651,7.375-4.852,10.663c-5.5,8.214-16.128,11.466-25.22,7.747c-4.773-1.953-7.971-5.497-10.221-10.004
		c-2.462-4.931-3.598-10.246-4.319-15.65c-1.26-9.445-1.922-18.948-1.844-28.47c0.05-6.065,0.662-12.126,1.024-18.189
		c0.028-0.476,0.181-0.971,0.096-1.424c-0.611-3.258,0.075-6.379,1.034-9.445c2.684-8.574,8.632-13.825,17.113-16.236
		C242.211,28.612,244.533,28.768,246.756,28.576z"/>
</g>
</svg>
