<?xml version="1.0" encoding="iso-8859-1"?>
<!-- Generator: Adobe Illustrator 22.1.0, SVG Export Plug-In . SVG Version: 6.00 Build 0)  -->
<svg version="1.1" id="Layer_1" xmlns="http://www.w3.org/2000/svg" xmlns:xlink="http://www.w3.org/1999/xlink" x="0px" y="0px"
	 width="456.332px" height="145.513px" viewBox="0 0 456.332 145.513" enable-background="new 0 0 456.332 145.513"
	 xml:space="preserve" role="img">
	 <title>Just</title>
<g>
	<path class="shape" d="M411.286,4.308c5.803,0.285,11.506,0.937,17.074,2.548c7.641,2.209,13.847,6.433,18.417,13.018
		c2.839,4.091,5.187,8.438,7.146,13.005c4.033,9.402,2.952,18.318-2.877,26.59c-3.08,4.371-6.345,8.653-9.917,12.625
		c-3.214,3.574-4.326,7.475-3.811,12.114c0.431,3.887,0.849,7.798-0.057,11.694c-2.403,10.343-13.036,19.417-23.619,19.75
		c-6.9,0.217-13.091-1.876-17.917-7.13c-0.757-0.824-1.526-1.639-2.267-2.478c-2.448-2.774-5.575-4.142-9.19-4.68
		c-4.496-0.669-8.94-0.005-13.394,0.332c-6.952,0.526-13.878,0.922-20.763-0.691c-6.524-1.528-12.361-4.373-17.218-9.004
		c-9.176-8.749-11.519-19.368-8.286-31.409c2.779-10.349,8.653-18.798,16.258-26.146c3.986-3.851,8.437-7.095,13.255-9.841
		c4.512-2.572,8.936-5.307,13.53-7.722c3.809-2.002,7.703-3.936,11.745-5.38c7.143-2.551,14.365-4.961,21.888-6.176
		C404.587,4.794,407.95,4.636,411.286,4.308z"/>
	<path class="shape" d="M72.154,39.037c8.688,0.193,16.66,2.322,23.682,7.513c6.184,4.572,10.44,10.334,10.894,18.31
		c0.33,5.793-0.916,11.276-3.496,16.462c-0.32,0.643-0.638,1.298-1.045,1.886c-2.15,3.1-2.529,6.477-1.679,10.076
		c0.312,1.321,0.513,2.669,0.845,3.985c1.702,6.761,1.844,13.649,1.118,20.495c-0.889,8.389-5.572,14.809-12.214,19.567
		c-8.211,5.881-17.465,8.834-27.728,8.061c-4.828-0.364-9.459-1.513-13.981-3.158c-1.346-0.49-2.665-1.092-3.926-1.774
		c-4.396-2.376-6.737-5.986-6.526-11.099c0.086-2.076,0.177-4.159,0.102-6.232c-0.046-1.26-0.249-2.562-0.657-3.75
		c-0.783-2.276-2.353-3.747-4.862-4.062c-3.487-0.437-6.988-0.804-10.446-1.412c-3.798-0.668-7.437-1.93-10.738-3.963
		C4.485,105.625,0.377,99.415,0.019,91.114c-0.196-4.55,1.161-8.834,3.529-12.769c3.207-5.33,7.22-9.967,12.028-13.895
		c7.003-5.722,14.285-11.054,22.146-15.561c6.28-3.6,12.919-6.403,19.966-7.95C62.421,39.901,67.326,39.644,72.154,39.037z"/>
	<path class="shape" d="M305.082,42.182c0.366,5.487-0.86,10.633-3.437,15.47c-0.225,0.423-0.406,0.872-0.652,1.282
		c-2.99,4.995-2.765,10.058-0.19,15.091c1.381,2.699,2.962,5.297,4.475,7.928c1.394,2.424,2.868,4.803,4.217,7.251
		c3.967,7.2,4.889,14.965,4.052,23.006c-0.256,2.458-0.692,4.906-1.201,7.326c-2.193,10.43-8.485,17.499-18.095,21.768
		c-4.658,2.069-9.581,3.112-14.652,3.289c-7.483,0.262-14.836-0.709-22.025-2.808c-1.603-0.468-3.176-1.09-4.696-1.788
		c-5.553-2.551-8.439-6.984-8.616-13.031c-0.089-3.022,0.263-6.06,0.486-9.085c0.164-2.23,0.442-4.452,0.671-6.678
		c0.59-5.741-0.988-10.576-5.795-14.119c-1.8-1.327-3.524-2.761-5.262-4.17c-9.11-7.389-11.579-16.836-8.581-27.934
		c1.531-5.668,4.56-10.531,8.319-14.969c6.603-7.797,14.843-13.319,24.249-17.114c6.831-2.755,13.879-4.821,21.185-5.941
		c1.086-0.167,2.137-0.627,3.175-1.027c3.984-1.535,8.025-2.109,12.193-0.824c6.268,1.932,9.714,6.233,10.165,12.763
		C305.166,39.299,305.082,40.743,305.082,42.182z"/>
	<path class="shape" d="M209.905,41.086c-0.053,9.974-2.513,18.481-7.233,26.329c-4.02,6.683-8.825,12.768-14.456,18.16
		c-5.956,5.703-12.779,9.828-21.114,11.051c-8.256,1.211-16.065-0.451-23.655-3.573c-11.379-4.679-19.109-12.796-23.18-24.441
		c-2.337-6.686-3.853-13.517-4.318-20.586c-0.078-1.191-0.167-2.429-0.548-3.543c-2.553-7.457-2.004-14.943-0.532-22.502
		c0.823-4.229,2.3-8.11,4.68-11.707c3.815-5.765,9.473-8.404,15.973-9.607c8.316-1.538,16.34-0.475,23.664,3.768
		c4.174,2.418,8.298,3.211,13.049,2.583c4.497-0.594,9.09-0.684,13.636-0.622c7.454,0.101,13.128,3.557,17.054,9.884
		c3.915,6.309,5.944,13.236,6.692,20.573C209.785,38.524,209.846,40.205,209.905,41.086z"/>
</g>
</svg>
