<?xml version="1.0" encoding="iso-8859-1"?>
<!-- Generator: Adobe Illustrator 22.1.0, SVG Export Plug-In . SVG Version: 6.00 Build 0)  -->
<svg version="1.1" id="Layer_1" xmlns="http://www.w3.org/2000/svg" xmlns:xlink="http://www.w3.org/1999/xlink" x="0px" y="0px"
	 width="288.721px" height="168.692px" viewBox="0 0 288.721 168.692" enable-background="new 0 0 288.721 168.692"
	 xml:space="preserve" role="img">
	 <title>The</title>
<g>
	<path fill="#FF00FF" d="M78.165,56.236c0-7.748-0.081-15.497,0.029-23.243c0.071-4.971,1.143-9.806,2.226-14.661
		c3.018-13.533,20.48-23.8,36.065-15.139c4.095,2.276,7.282,5.42,9.806,9.309c4.166,6.418,7.129,13.377,9.476,20.638
		c1.129,3.492,2.452,6.927,3.82,10.335c0.59,1.47,1.453,2.845,2.3,4.194c1.869,2.975,4.27,5.257,7.7,6.504
		c6.764,2.459,12.612,6.516,18.211,10.953c9.231,7.315,13.895,17.117,15.451,28.567c0.792,5.829,0.78,11.642-0.945,17.348
		c-0.98,3.24-2.365,6.282-4.409,8.997c-4.977,6.612-11.715,9.025-19.687,6.866c-2.766-0.749-5.398-1.979-8.14-2.837
		c-2.963-0.927-5.945-1.869-8.986-2.452c-4.024-0.772-7.571,0.194-10.297,3.574c-1.703,2.112-3.639,4.037-5.489,6.028
		c-8,8.61-23.494,7.954-31.132-2.001c-3.612-4.708-5.426-10.118-6.347-15.856c-0.522-3.25-1.283-6.388-2.452-9.473
		c-3.567-9.412-5.401-19.217-6.201-29.219c-0.491-6.132-0.82-12.277-1.221-18.415C78.016,56.248,78.09,56.242,78.165,56.236z"/>
	<path fill="#FF00FF" d="M272.911,99.563c0.478,3.054,1.74,5.549,3.412,7.801c2.143,2.887,4.422,5.676,6.708,8.453
		c2.424,2.946,4.399,6.119,5.075,9.927c2.295,12.945-1.648,25.458-15.005,31.886c-4.394,2.115-9.115,3.038-13.954,3.066
		c-15.107,0.088-27.785-5.64-37.861-16.751c-12.027-13.262-17.754-28.982-16.318-46.897c1.237-15.432,8.081-27.85,21.72-35.847
		c15.354-9.003,35.765-7.678,49.272,3.001c5.06,4.001,8.578,9.013,9.696,15.497c0.92,5.332-0.419,10.073-4.211,13.893
		c-1.831,1.845-4.143,3.219-6.273,4.758C274.536,98.809,273.781,99.104,272.911,99.563z"/>
	<path fill="#FF00FF" d="M0.032,123.34c0.355-9.41,1.961-18.946,3.956-28.419c1.119-5.316,2.476-10.581,3.681-15.879
		c0.336-1.476,0.572-2.981,0.747-4.485c0.694-5.947,2.549-11.554,5.17-16.886c1.007-2.049,2.366-4.024,3.934-5.683
		c7.019-7.426,17.04-8.117,25.053-1.744C48.969,55.33,52.632,61.987,53.089,70.2c0.204,3.665,1.294,6.863,3.622,9.683
		c3.35,4.058,3.675,8.524,1.697,13.278c-2.302,5.532-5.286,10.537-10.129,14.317c-3.442,2.687-3.882,4.701-2.531,8.846
		c1.007,3.087,2.796,5.735,4.743,8.286c2.23,2.922,4.591,5.753,6.69,8.766c2.578,3.701,3.739,7.887,3.777,12.426
		c0.06,7.296-3.035,12.989-8.766,17.258c-9.413,7.013-23.432,7.524-33.513,1.265c-9.434-5.857-14.817-14.558-17.308-25.201
		C0.179,134.03-0.107,128.847,0.032,123.34z"/>
</g>
</svg>
